<svg width="28" height="28" viewBox="0 0 28 28" fill="none" xmlns="http://www.w3.org/2000/svg">
<mask id="mask0_4936_4" style="mask-type:alpha" maskUnits="userSpaceOnUse" x="0" y="0" width="28" height="28">
<rect width="28" height="28" fill="#C4C4C4"/>
</mask>
<g mask="url(#mask0_4936_4)">
<path d="M26.46 8.83515L14.6709 2.47331C14.3244 2.28665 13.9079 2.28665 13.5625 2.47331L1.77922 8.83515C1.21222 9.14315 1.00105 9.85013 1.30672 10.4171C1.51672 10.808 1.91922 11.0296 2.33339 11.0296C2.52006 11.0296 2.71139 10.9853 2.88756 10.8896L3.74389 10.4276L5.59889 23.5526C5.85089 24.969 7.12722 25.9583 8.70222 25.9583H19.5312C21.1062 25.9583 22.3825 24.969 22.6369 23.5223L24.4895 10.4265L25.3494 10.8908C25.9152 11.1976 26.6234 10.9865 26.929 10.4195C27.2359 9.85247 27.0224 9.14431 26.4577 8.83864L26.46 8.83515ZM14.1167 18.2676C12.0225 18.2676 10.3251 16.5701 10.3251 14.476C10.3251 12.3818 12.0225 10.6843 14.1167 10.6843C16.2109 10.6843 17.9084 12.3818 17.9084 14.476C17.9084 16.5701 16.2109 18.2676 14.1167 18.2676Z" fill="black"/>
</g>
</svg>
