<svg width="21" height="19" viewBox="0 0 21 19" fill="none" xmlns="http://www.w3.org/2000/svg">
<path d="M10.8 18.914H10.786C8.203 18.866 0.75 12.132 0.75 5.754C0.75 2.69 3.275 0 6.153 0C8.443 0 9.983 1.58 10.799 2.73C11.613 1.582 13.153 0 15.444 0C18.324 0 20.848 2.69 20.848 5.755C20.848 12.131 13.394 18.865 10.811 18.912H10.8V18.914ZM6.154 1.501C4.074 1.501 2.251 3.489 2.251 5.756C2.251 11.496 9.285 17.352 10.801 17.414C12.319 17.352 19.351 11.497 19.351 5.756C19.351 3.489 17.528 1.501 15.448 1.501C12.92 1.501 11.508 4.437 11.496 4.466C11.266 5.028 10.34 5.028 10.109 4.466C10.095 4.436 8.68401 1.501 6.15501 1.501H6.154Z" fill="#536471"/>
</svg>
